<svg id="Layer_1" data-name="Layer 1" xmlns="http://www.w3.org/2000/svg" viewBox="0 0 350 100"><defs></defs><path class="cls-1" d="M93.3,78.77a58.09,58.09,0,0,0,1.41-8.12c0-10.15-4.95-18.55-13.33-24.1C68.29,38.27,65.16,29.17,62.55,24.19,62,23.1,60.68,21.11,61.46,20a21.64,21.64,0,0,1,7.14-6.1,20.15,20.15,0,0,1,12.42-2A42.65,42.65,0,0,1,93.3,78.77Zm-10-6.31a21.87,21.87,0,0,0-6.63-13.34A19.39,19.39,0,0,0,75,57.51a3.59,3.59,0,0,0-4.44-.22,33.7,33.7,0,0,1-4.83,2.45c-3.9,1.4-6.31-.22-6.69-4.32a3.57,3.57,0,0,0-.09-.51h0c-1-.52-2-.72-2.45-1.33-.29-.45.23-1.42.43-2.32a4.06,4.06,0,0,1-.79-.44c-1-.84-.92-1.84.16-2.64a12.11,12.11,0,0,0,1.21-1.32c-.64-.11-.94-.13-1.23-.2-2.11-.47-2.72-2.08-1.43-3.81.87-1.15,1.81-2.26,2.6-3.47a5.94,5.94,0,0,0,.65-5.31C56.3,28.37,56.88,24.14,60,19.76h0a21.91,21.91,0,0,1,8-7,21.41,21.41,0,0,1,9.53-2.42A42.67,42.67,0,1,0,61.8,92.67a42.28,42.28,0,0,0,13-2,24.15,24.15,0,0,0,7.63-8.48C84.13,79.22,83.55,74.88,83.28,72.46Z"></path><path class="cls-1" d="M133.75,38.39q0,5.63-2.85,8.85A10,10,0,0,1,123,50.47c-3.45,0-6.12-1.06-8-3.17s-2.82-5.09-2.82-8.94.94-6.77,2.83-8.87,4.55-3.16,8-3.16a10,10,0,0,1,7.89,3.21Q133.75,32.75,133.75,38.39Zm-18.68,0c0,3.18.68,5.58,2,7.23A7.19,7.19,0,0,0,123,48.08a7.1,7.1,0,0,0,5.88-2.46q2-2.44,2-7.23t-2-7.17A7.09,7.09,0,0,0,123,28.77a7.23,7.23,0,0,0-5.92,2.46Q115.08,33.69,115.07,38.39Z"></path><path class="cls-1" d="M160.15,50.14V38.71a4.79,4.79,0,0,0-.89-3.15,3.48,3.48,0,0,0-2.79-1.05,4.54,4.54,0,0,0-3.68,1.43,6.77,6.77,0,0,0-1.18,4.39v9.81H149V38.71a4.74,4.74,0,0,0-.9-3.15,3.51,3.51,0,0,0-2.81-1.05,4.33,4.33,0,0,0-3.66,1.5c-.78,1-1.16,2.64-1.16,4.92v9.21h-2.67V32.57h2.17l.43,2.41h.13a5.2,5.2,0,0,1,2.12-2,6.54,6.54,0,0,1,3.08-.72c2.74,0,4.54,1,5.38,3h.13a5.58,5.58,0,0,1,2.28-2.18,7.08,7.08,0,0,1,3.4-.8,6,6,0,0,1,4.46,1.53c1,1,1.49,2.66,1.49,4.9V50.14Z"></path><path class="cls-1" d="M193,50.14,190,42.69h-9.39l-2.89,7.45H175l9.27-23.53h2.29l9.22,23.53Zm-3.77-9.9L186.46,33a35,35,0,0,1-1.09-3.38,33.18,33.18,0,0,1-1,3.38l-2.76,7.27Z"></path><path class="cls-1" d="M205.85,50.47a8.11,8.11,0,0,1-6.15-2.38,9.19,9.19,0,0,1-2.25-6.59,10.22,10.22,0,0,1,2.09-6.75,7,7,0,0,1,5.62-2.5,6.64,6.64,0,0,1,5.23,2.17,8.35,8.35,0,0,1,1.92,5.74v1.68h-12.1a7,7,0,0,0,1.56,4.7,5.4,5.4,0,0,0,4.18,1.6A14,14,0,0,0,211.56,47v2.38a13,13,0,0,1-5.71,1.14Zm-.72-16a4.34,4.34,0,0,0-3.37,1.38,6.35,6.35,0,0,0-1.49,3.81h9.19a5.83,5.83,0,0,0-1.12-3.85A4,4,0,0,0,205.13,34.48Z"></path><path class="cls-1" d="M228.68,45.35a4.38,4.38,0,0,1-1.83,3.78,8.58,8.58,0,0,1-5.13,1.34,11.11,11.11,0,0,1-5.45-1.11V46.89a13.15,13.15,0,0,0,2.72,1,11.18,11.18,0,0,0,2.8.37,6.25,6.25,0,0,0,3.2-.67,2.29,2.29,0,0,0,.23-3.78,13.74,13.74,0,0,0-3.47-1.72,19.18,19.18,0,0,1-3.48-1.6A4.64,4.64,0,0,1,216.73,39,4.25,4.25,0,0,1,218,33.49a8.18,8.18,0,0,1,4.79-1.24,14,14,0,0,1,5.55,1.16l-.94,2.16a12.74,12.74,0,0,0-4.8-1.09,5.56,5.56,0,0,0-2.85.59,1.84,1.84,0,0,0-1,1.64,2,2,0,0,0,.36,1.2,3.51,3.51,0,0,0,1.16,1,26,26,0,0,0,3.08,1.3,11.36,11.36,0,0,1,4.22,2.29A4.06,4.06,0,0,1,228.68,45.35Z"></path><path class="cls-1" d="M239.18,48.27a8.61,8.61,0,0,0,1.36-.11,7.79,7.79,0,0,0,1-.21v2a4.75,4.75,0,0,1-1.27.35,9.75,9.75,0,0,1-1.52.14c-3.4,0-5.1-1.8-5.1-5.38V34.64h-2.51V33.36l2.51-1.11,1.13-3.75h1.54v4.07h5.09v2.07h-5.09V45a3.58,3.58,0,0,0,.75,2.44A2.61,2.61,0,0,0,239.18,48.27Z"></path><path class="cls-1" d="M257.61,50.14V38.78a4.55,4.55,0,0,0-1-3.21,4,4,0,0,0-3.06-1.06,5,5,0,0,0-4,1.51q-1.28,1.5-1.27,4.94v9.18h-2.66V25.2h2.66v7.55a15.73,15.73,0,0,1-.13,2.26h.16a5.39,5.39,0,0,1,2.24-2,7.33,7.33,0,0,1,3.31-.73,6.76,6.76,0,0,1,4.83,1.53c1.08,1,1.61,2.65,1.61,4.87V50.14Z"></path><path class="cls-1" d="M272.34,50.47a8.07,8.07,0,0,1-6.14-2.38,9.15,9.15,0,0,1-2.26-6.59A10.22,10.22,0,0,1,266,34.75a7,7,0,0,1,5.62-2.5,6.64,6.64,0,0,1,5.23,2.17,8.35,8.35,0,0,1,1.93,5.74v1.68H266.7a7,7,0,0,0,1.56,4.7,5.4,5.4,0,0,0,4.18,1.6A14,14,0,0,0,278.05,47v2.38a13,13,0,0,1-5.71,1.14Zm-.72-16a4.34,4.34,0,0,0-3.37,1.38,6.35,6.35,0,0,0-1.49,3.81H276a5.83,5.83,0,0,0-1.12-3.85A4,4,0,0,0,271.62,34.48Z"></path><path class="cls-1" d="M288.85,48.27a8.64,8.64,0,0,0,1.37-.11,8.14,8.14,0,0,0,1-.21v2a4.75,4.75,0,0,1-1.27.35,9.86,9.86,0,0,1-1.52.14c-3.4,0-5.1-1.8-5.1-5.38V34.64h-2.52V33.36l2.52-1.11,1.12-3.75H286v4.07h5.1v2.07H286V45a3.53,3.53,0,0,0,.76,2.44A2.6,2.6,0,0,0,288.85,48.27Z"></path><path class="cls-1" d="M295,27.81a1.76,1.76,0,0,1,.45-1.34,1.68,1.68,0,0,1,2.23,0,1.73,1.73,0,0,1,.46,1.33,1.77,1.77,0,0,1-.46,1.34,1.57,1.57,0,0,1-1.11.44,1.55,1.55,0,0,1-1.12-.44A1.81,1.81,0,0,1,295,27.81Zm2.89,22.33h-2.67V32.57h2.67Z"></path><path class="cls-1" d="M310.43,50.47a7.51,7.51,0,0,1-5.91-2.35,9.64,9.64,0,0,1-2.09-6.65c0-2.94.7-5.21,2.12-6.81a7.64,7.64,0,0,1,6.05-2.41,12.18,12.18,0,0,1,2.54.27,8.74,8.74,0,0,1,2,.65l-.82,2.26a12.5,12.5,0,0,0-1.93-.59,8.86,8.86,0,0,0-1.84-.23q-5.35,0-5.36,6.83a8.15,8.15,0,0,0,1.31,5,4.55,4.55,0,0,0,3.87,1.73,11.68,11.68,0,0,0,4.51-1v2.36A9.61,9.61,0,0,1,310.43,50.47Z"></path><path class="cls-1" d="M330.87,45.35A4.38,4.38,0,0,1,329,49.13a8.58,8.58,0,0,1-5.13,1.34,11.11,11.11,0,0,1-5.45-1.11V46.89a13.28,13.28,0,0,0,2.71,1,11.18,11.18,0,0,0,2.8.37,6.29,6.29,0,0,0,3.21-.67,2.19,2.19,0,0,0,1.12-2,2.22,2.22,0,0,0-.89-1.76,13.74,13.74,0,0,0-3.47-1.72,19,19,0,0,1-3.49-1.6A4.73,4.73,0,0,1,318.91,39a4.07,4.07,0,0,1-.5-2.07,3.94,3.94,0,0,1,1.75-3.39A8.18,8.18,0,0,1,325,32.25a14.06,14.06,0,0,1,5.55,1.16l-.95,2.16a12.65,12.65,0,0,0-4.79-1.09,5.6,5.6,0,0,0-2.86.59,1.84,1.84,0,0,0-1,1.64,2,2,0,0,0,.36,1.2,3.62,3.62,0,0,0,1.16,1,27.58,27.58,0,0,0,3.08,1.3,11.33,11.33,0,0,1,4.23,2.29A4.06,4.06,0,0,1,330.87,45.35Z"></path><path class="cls-1" d="M202.05,60.24A5.13,5.13,0,0,0,198,62a7,7,0,0,0-1.5,4.74,7.11,7.11,0,0,0,1.45,4.78A5.15,5.15,0,0,0,202,73.18a13.89,13.89,0,0,0,3.76-.6v1.61a11.57,11.57,0,0,1-4,.61,6.82,6.82,0,0,1-5.37-2.11,8.72,8.72,0,0,1-1.9-6,9.48,9.48,0,0,1,.92-4.27A6.47,6.47,0,0,1,198,59.59a7.93,7.93,0,0,1,4-1,9.84,9.84,0,0,1,4.34.9l-.78,1.58A8.33,8.33,0,0,0,202.05,60.24Z"></path><path class="cls-1" d="M211.09,74.59H209.3V57.81h1.79Z"></path><path class="cls-1" d="M215.06,59.57a1.19,1.19,0,0,1,.3-.9,1.09,1.09,0,0,1,.76-.29,1.06,1.06,0,0,1,.74.29,1.43,1.43,0,0,1,0,1.8,1,1,0,0,1-.74.29,1,1,0,0,1-.76-.29A1.22,1.22,0,0,1,215.06,59.57Zm1.94,15h-1.79V62.77H217Z"></path><path class="cls-1" d="M229.22,74.59V66.94a3.06,3.06,0,0,0-.66-2.15,2.67,2.67,0,0,0-2.06-.71,3.4,3.4,0,0,0-2.72,1,5.09,5.09,0,0,0-.86,3.31v6.2h-1.79V62.77h1.46l.29,1.62H223A3.71,3.71,0,0,1,224.5,63a5.2,5.2,0,0,1,2.22-.48,4.52,4.52,0,0,1,3.21,1,4.4,4.4,0,0,1,1.08,3.3v7.71Z"></path><path class="cls-1" d="M234.86,59.57a1.16,1.16,0,0,1,.31-.9,1.1,1.1,0,0,1,1.49,0,1.43,1.43,0,0,1,0,1.8,1.1,1.1,0,0,1-1.49,0A1.19,1.19,0,0,1,234.86,59.57Zm1.94,15H235V62.77h1.79Z"></path><path class="cls-1" d="M245.65,74.8a5,5,0,0,1-4-1.58,6.48,6.48,0,0,1-1.41-4.47,6.72,6.72,0,0,1,1.43-4.58,5.14,5.14,0,0,1,4.07-1.62,8.3,8.3,0,0,1,1.71.19,5.32,5.32,0,0,1,1.33.43l-.55,1.52A7.52,7.52,0,0,0,247,64.3a5.47,5.47,0,0,0-1.24-.16q-3.6,0-3.6,4.59a5.46,5.46,0,0,0,.88,3.35,3.06,3.06,0,0,0,2.6,1.16,7.82,7.82,0,0,0,3-.64v1.59A6.47,6.47,0,0,1,245.65,74.8Z"></path></svg>